<svg width="32" height="44" viewBox="0 0 32 44" fill="none" xmlns="http://www.w3.org/2000/svg">
<path d="M1.6136 35.6164C1.95248 35.6164 2.22721 35.341 2.22721 35.0011V9.15629C2.22721 8.57411 2.69961 8.10046 3.28026 8.10046H17.5931V15.1936C17.5931 17.348 19.3412 19.1007 21.4899 19.1007C23.6387 19.1007 25.3867 17.348 25.3867 15.1936V8.10046H28.7196C29.3003 8.10046 29.7727 8.57411 29.7727 9.15629V11.3566C29.7727 11.6965 30.0473 11.9718 30.3863 11.9718C30.7253 11.9718 30.9999 11.6965 30.9999 11.3566V9.15629C31 7.89563 29.9771 6.86999 28.7197 6.86999H27.2333V5.83279C27.2333 3.168 25.071 1 22.4132 1C19.7555 1 17.5932 3.168 17.5932 5.83279V6.86999H3.28026C2.02292 6.86999 0.999985 7.89563 0.999985 9.15629V35.0011C0.999985 35.341 1.27464 35.6164 1.6136 35.6164ZM24.1596 6.86999H20.6668V5.83279C20.6668 4.8672 21.4502 4.08175 22.4132 4.08175C23.3762 4.08175 24.1596 4.8672 24.1596 5.83279V6.86999ZM18.8204 5.83279C18.8204 3.84648 20.4322 2.23047 22.4132 2.23047C24.3943 2.23047 26.0061 3.84648 26.0061 5.83279V6.86999H25.3868V5.83279C25.3868 4.1888 24.0529 2.85128 22.4132 2.85128C20.7736 2.85128 19.4396 4.1888 19.4396 5.83279V6.86999H18.8204V5.83279ZM18.8203 8.10046H19.4395V11.612C19.4395 11.9518 19.7142 12.2272 20.0531 12.2272C20.3921 12.2272 20.6667 11.9518 20.6667 11.612V8.10046H24.1594V15.1935H24.1595C24.1595 16.6694 22.9619 17.8701 21.4899 17.8701C20.0179 17.8701 18.8203 16.6694 18.8203 15.1935V8.10046Z" fill="#3035C4" stroke="#3035C4" stroke-width="0.5"/>
<path d="M6.33188 38.0581H20.0532C20.3921 38.0581 20.6668 37.7827 20.6668 37.4429C20.6668 37.103 20.3921 36.8276 20.0532 36.8276H6.33188C5.99292 36.8276 5.71826 37.103 5.71826 37.4429C5.71826 37.7826 5.993 38.0581 6.33188 38.0581Z" fill="#3035C4" stroke="#3035C4" stroke-width="0.5"/>
<path d="M9.4658 23.7179V22.5283C9.4658 22.1885 9.19115 21.9131 8.85219 21.9131C8.51322 21.9131 8.23857 22.1885 8.23857 22.5283V23.7179C8.23857 24.0578 8.51322 24.3332 8.85219 24.3332C9.19106 24.3332 9.4658 24.0577 9.4658 23.7179Z" fill="#E6514A" stroke="#E6514A" stroke-width="0.5"/>
<path d="M6.33188 34.0776H17.4338C17.7727 34.0776 18.0474 33.8022 18.0474 33.4624C18.0474 33.1225 17.7727 32.8472 17.4338 32.8472H6.33188C5.99292 32.8472 5.71826 33.1225 5.71826 33.4624C5.71826 33.8023 5.993 34.0776 6.33188 34.0776Z" fill="#3035C4" stroke="#3035C4" stroke-width="0.5"/>
<path d="M30.3864 14.1836C30.0474 14.1836 29.7728 14.459 29.7728 14.7988V40.7136C29.7728 41.2957 29.3004 41.7694 28.7197 41.7694H3.28026C2.69961 41.7694 2.22721 41.2957 2.22721 40.7136V38.3523C2.22721 38.0124 1.95248 37.7371 1.6136 37.7371C1.27464 37.7371 0.999985 38.0124 0.999985 38.3523V40.7136C0.999985 41.9742 2.02292 42.9999 3.28026 42.9999H28.7197C29.977 42.9999 31 41.9742 31 40.7136V14.7988C31 14.459 30.7252 14.1836 30.3864 14.1836Z" fill="#3035C4" stroke="#3035C4" stroke-width="0.5"/>
<path d="M23.7614 23.7179V22.5283C23.7614 22.1885 23.4867 21.9131 23.1478 21.9131C22.8088 21.9131 22.5341 22.1885 22.5341 22.5283V23.7179C22.5341 24.0578 22.8088 24.3332 23.1478 24.3332C23.4867 24.3332 23.7614 24.0577 23.7614 23.7179Z" fill="#E6514A" stroke="#E6514A" stroke-width="0.5"/>
<path d="M24.1444 29.4824C24.1444 29.1426 23.8697 28.8672 23.5307 28.8672H6.33188C5.993 28.8672 5.71826 29.1426 5.71826 29.4824C5.71826 29.8223 5.99292 30.0977 6.33188 30.0977H23.5307C23.8697 30.0977 24.1444 29.8223 24.1444 29.4824Z" fill="#3035C4" stroke="#3035C4" stroke-width="0.5"/>
<path d="M16 25.2466C16.8995 25.2466 17.755 24.8559 18.3471 24.1748C18.5698 23.9186 18.5431 23.53 18.2876 23.3067C18.032 23.0834 17.6446 23.1102 17.4219 23.3664C17.0629 23.7793 16.5446 24.0162 16 24.0162C15.4553 24.0162 14.937 23.7793 14.5781 23.3664C14.3553 23.1102 13.9678 23.0836 13.7124 23.3067C13.4569 23.53 13.4303 23.9186 13.6529 24.1748C14.245 24.856 15.1004 25.2466 16 25.2466Z" fill="#E6514A" stroke="#E6514A" stroke-width="0.5"/>
</svg>
