<svg width="39" height="37" viewBox="0 0 39 37" fill="none" xmlns="http://www.w3.org/2000/svg">
<path d="M31.7385 23.5479C31.3845 23.5479 31.0973 23.2608 31.0973 22.9061V22.6619C31.0973 21.9117 30.028 21.1759 28.9385 21.1759H26.3172C25.9632 21.1759 25.6763 20.8891 25.6763 20.5344C25.6763 20.1797 25.9632 19.8926 26.3172 19.8926H28.9385C30.5661 19.8926 32.3794 21.0301 32.3794 22.6619V22.9061C32.3794 23.2608 32.0925 23.5479 31.7385 23.5479Z" fill="#3035C4"/>
<path d="M29.1748 15.7213C29.1572 15.7213 29.1396 15.7209 29.122 15.7194C28.7687 15.6901 28.506 15.3805 28.5354 15.0273L28.856 11.1105C28.8534 8.89967 27.1455 7.05822 25.0461 7.05822H21.763C19.6633 7.05822 17.9554 8.89967 17.9554 11.163L18.2734 15.0273C18.3028 15.3805 18.0401 15.6901 17.6869 15.7194C17.3362 15.7484 17.0251 15.4859 16.9958 15.1323L16.6755 11.2155C16.6733 8.1921 18.9565 5.7749 21.763 5.7749H25.0458C27.8527 5.7749 30.1359 8.1921 30.1359 11.163L29.8131 15.1323C29.7855 15.4676 29.5053 15.7213 29.1748 15.7213Z" fill="#3035C4"/>
<path d="M23.4046 21.818C22.6445 21.818 21.8786 21.6957 21.1893 21.464C20.8537 21.3513 20.6728 20.987 20.7858 20.651C20.8988 20.3154 21.2619 20.1355 21.5972 20.2468C22.1566 20.4348 22.7813 20.5346 23.4042 20.5346C24.8572 20.5346 26.2016 20.0081 26.9125 19.1603C27.8817 18.0036 28.5328 16.3527 28.5328 15.0529V12.4668C28.5328 12.1297 28.4638 11.9046 28.3281 11.7996C27.845 11.4229 26.3098 11.8132 24.9555 12.1573C23.7175 12.4719 22.438 12.7976 21.2784 12.7976C19.8357 12.7976 18.8644 12.2781 18.2829 11.9208C18.2785 12.0644 18.276 12.2432 18.276 12.4668V15.0529C18.276 15.9892 18.6245 17.1543 19.2084 18.1692C19.3853 18.4766 19.2796 18.8687 18.9729 19.0453C18.6659 19.2227 18.2741 19.1173 18.0973 18.8096C17.396 17.5902 16.9935 16.2209 16.9935 15.0529V12.4668C16.9935 11.3755 17.0181 10.7447 17.5254 10.4645C17.9777 10.2108 18.4058 10.4832 18.7829 10.7201C19.284 11.0366 20.0415 11.5143 21.2784 11.5143C22.2773 11.5143 23.4783 11.2084 24.6397 10.9132C26.5167 10.4362 28.1363 10.0235 29.1153 10.7862C29.5797 11.1475 29.8149 11.713 29.8149 12.4668V15.0529C29.8149 16.6568 29.0614 18.5922 27.8945 19.985C26.9327 21.1328 25.2537 21.818 23.4046 21.818Z" fill="#3035C4"/>
<path d="M29.2547 29.7663C28.9616 29.7663 28.6968 29.5632 28.63 29.2651C28.5526 28.9192 28.7702 28.5758 29.1157 28.4987L36.7237 26.7935C37.0061 26.7436 37.227 26.6029 37.3744 26.3925C37.5219 26.1821 37.5788 25.9269 37.5344 25.6736C37.4757 25.3372 37.2398 25.0545 36.9199 24.9355C36.5876 24.8125 36.4181 24.4435 36.5414 24.1108C36.6646 23.7785 37.0348 23.6074 37.3649 23.7323C38.111 24.0088 38.6602 24.6679 38.7974 25.4518C38.9012 26.043 38.7684 26.6386 38.4239 27.1295C38.0799 27.6208 37.5648 27.9479 36.9742 28.0519L29.3956 29.7508C29.3486 29.7611 29.3013 29.7663 29.2547 29.7663Z" fill="#3035C4"/>
<path d="M20.5815 33.3684H15.7115C15.6649 33.3684 15.6183 33.3636 15.5725 33.3533L9.80303 32.07C9.45747 31.9929 9.23921 31.6499 9.31625 31.3044C9.39291 30.9585 9.7348 30.7426 10.0807 30.8168L15.7819 32.085H20.5815C23.0833 32.085 25.5373 31.2232 27.4914 29.6587C27.5086 29.6447 27.5266 29.6322 27.545 29.6205L37.0337 23.513C37.0645 23.4928 37.0968 23.476 37.1301 23.4616C37.3667 23.3614 37.5498 23.1745 37.6463 22.9366C37.7427 22.6979 37.7402 22.4357 37.64 22.1996C37.4328 21.7105 36.8671 21.4818 36.3792 21.6892L26.8542 25.62C26.7768 25.6519 26.6936 25.6681 26.6099 25.6681H14.4294C14.1983 25.6681 13.9852 25.544 13.8715 25.3427C13.7578 25.1411 13.7611 24.894 13.8799 24.6961L15.8032 21.4876C15.9188 21.2949 16.1275 21.1763 16.3527 21.1763H18.9172C20.1098 21.1763 21.1149 20.3574 21.4002 19.2511H14.6393L5.89412 25.671C5.608 25.8807 5.20779 25.8175 4.99796 25.5329C4.78887 25.2473 4.8505 24.8456 5.13589 24.6355L14.0505 18.0919C14.1602 18.0111 14.293 17.9678 14.4294 17.9678H22.1222C22.4762 17.9678 22.7634 18.2549 22.7634 18.6096C22.7634 20.7327 21.0378 22.4599 18.9168 22.4599H16.7159L15.5618 24.3851H26.483L35.8848 20.5054C37.0179 20.0233 38.3374 20.5586 38.8205 21.6984C39.0545 22.2506 39.06 22.8609 38.8352 23.4176C38.618 23.9559 38.2108 24.3807 37.6855 24.6201L28.2665 30.6824C26.0898 32.4144 23.3624 33.3684 20.5815 33.3684Z" fill="#3035C4"/>
<path d="M6.93627 36.9999C6.90215 36.9999 6.86767 36.9974 6.83356 36.9919C6.66555 36.9643 6.51552 36.8714 6.41611 36.7337L0.121364 27.9928C0.0215874 27.8551 -0.0191304 27.6826 0.00838163 27.5148C0.0355268 27.347 0.128334 27.1968 0.266261 27.0969L4.42607 24.0951C4.71403 23.8903 5.11424 23.9534 5.32113 24.2405L11.6159 32.9807C11.8231 33.2682 11.7582 33.6692 11.471 33.8767L7.31117 36.8791C7.20149 36.9581 7.06979 36.9999 6.93627 36.9999ZM1.53621 27.763L7.08153 35.4622L10.2014 33.2106L4.65608 25.5114L1.53621 27.763Z" fill="#3035C4"/>
<path d="M8.65962 32.727C8.65962 33.4357 8.08554 34.0104 7.37756 34.0104C6.66959 34.0104 6.0955 33.4357 6.0955 32.727C6.0955 32.018 6.66959 31.4434 7.37756 31.4434C8.08554 31.4434 8.65962 32.018 8.65962 32.727Z" fill="#3035C4"/>
<path d="M23.4046 3.84996C23.0502 3.84996 22.7634 3.56319 22.7634 3.20848V0.641477C22.7634 0.286773 23.0502 0 23.4046 0C23.7586 0 24.0454 0.286773 24.0454 0.641477V3.20848C24.0454 3.56319 23.7586 3.84996 23.4046 3.84996Z" fill="#E6514A"/>
<path d="M25.9687 3.85002C25.8047 3.85002 25.6408 3.7876 25.5157 3.66202C25.2651 3.4116 25.2651 3.00549 25.5157 2.7547L27.7592 0.508617C28.0097 0.258195 28.4154 0.258195 28.6656 0.508617C28.9161 0.759406 28.9161 1.16552 28.6656 1.4163L26.4221 3.66202C26.2966 3.7876 26.133 3.85002 25.9687 3.85002Z" fill="#E6514A"/>
<path d="M20.8401 3.8499C20.6761 3.8499 20.5122 3.78748 20.3871 3.6619L18.4638 1.73674C18.2133 1.48632 18.2133 1.08021 18.4638 0.829418C18.714 0.578996 19.1197 0.578996 19.3702 0.829418L21.2935 2.75458C21.5437 3.00537 21.5437 3.41148 21.2935 3.6619C21.168 3.78748 21.0041 3.8499 20.8401 3.8499Z" fill="#E6514A"/>
</svg>
