<svg width="42" height="21" viewBox="0 0 42 21" fill="none" xmlns="http://www.w3.org/2000/svg">
<path d="M38.2265 18.173C38.6796 18.173 39.0468 17.8114 39.0468 17.3653C39.0468 16.9192 38.6796 16.5576 38.2265 16.5576C37.7735 16.5576 37.4062 16.9192 37.4062 17.3653C37.4062 17.8114 37.7735 18.173 38.2265 18.173Z" fill="#E6514A"/>
<path d="M31.0898 0C26.5471 0 22.9324 3.2928 21.1376 5.32067C18.7153 2.70722 15.4233 0 10.9101 0C5.06213 0 -1.52588e-05 4.65457 -1.52588e-05 10.5C-1.52588e-05 16.3497 5.06632 21 10.9101 21C15.4494 21 19.0618 17.7126 20.8556 15.6878C23.275 18.2973 26.5657 21 31.0898 21C32.6008 21 34.0737 20.6957 35.4676 20.0955C35.8827 19.9167 36.072 19.4406 35.8905 19.0318C35.709 18.6231 35.2253 18.4366 34.8102 18.6154C33.6248 19.1258 32.3731 19.3846 31.0898 19.3846C27.0422 19.3846 24.0956 16.9132 21.4549 13.9206C19.9778 12.2429 18.2507 9.97742 18.1459 9.89819C15.9504 7.21746 13.7348 4.84615 10.9101 4.84615C7.66416 4.84615 4.92186 7.43529 4.92186 10.5C4.92186 13.5647 7.66416 16.1538 10.9101 16.1538C13.552 16.1538 15.8419 14.0002 17.6315 11.8536C18.3398 12.7341 19.0246 13.59 19.7665 14.4584C18.2094 16.2601 14.9287 19.3846 10.9101 19.3846C5.88556 19.3846 1.64061 15.3159 1.64061 10.5C1.64061 5.68405 5.88556 1.61538 10.9101 1.61538C14.965 1.61538 17.9155 4.11657 20.5386 7.08855C21.6574 8.35824 22.7034 9.70636 23.7242 10.9555C25.963 13.6949 28.2109 16.1538 31.0898 16.1538C34.3358 16.1538 37.0781 13.5647 37.0781 10.5C37.0781 7.43529 34.3358 4.84615 31.0898 4.84615C28.4471 4.84615 26.1547 7.0035 24.363 9.15333C23.6539 8.27319 22.9694 7.41833 22.2269 6.55006C23.7848 4.7456 27.068 1.61538 31.0898 1.61538C36.1144 1.61538 40.3594 5.68405 40.3594 10.5C40.3594 11.7259 40.0955 12.9165 39.5751 14.0387C39.3869 14.4444 39.5684 14.9236 39.9805 15.1089C40.3935 15.2946 40.8798 15.1143 41.0675 14.7096C41.6862 13.3754 42 11.959 42 10.5C42 4.65029 36.9337 0 31.0898 0ZM10.9101 14.5385C8.59407 14.5385 6.56248 12.6514 6.56248 10.5C6.56248 8.34863 8.59407 6.46154 10.9101 6.46154C12.9133 6.46154 14.7439 8.3475 16.5822 10.5641C14.9968 12.5117 12.9903 14.5385 10.9101 14.5385ZM31.0898 6.46154C33.4058 6.46154 35.4375 8.34863 35.4375 10.5C35.4375 12.6514 33.4058 14.5385 31.0898 14.5385C29.0856 14.5385 27.2532 12.6552 25.4133 10.4417C27.0008 8.49119 29.0094 6.46154 31.0898 6.46154Z" fill="#3035C4"/>
</svg>
