<svg width="44" height="29" viewBox="0 0 44 29" fill="none" xmlns="http://www.w3.org/2000/svg">
<path d="M37.2496 2.41211H6.74977C5.99816 2.41211 5.38672 3.02002 5.38672 3.76727V21.4638C5.38672 22.2111 5.99816 22.819 6.74977 22.819H37.2496C38.0012 22.819 38.6127 22.2111 38.6127 21.4638V3.76727C38.6127 3.02002 38.0012 2.41211 37.2496 2.41211ZM37.3602 21.4638C37.3602 21.5245 37.3105 21.5738 37.2496 21.5738H6.74977C6.68875 21.5739 6.63908 21.5245 6.63908 21.4638V3.76727C6.63908 3.70661 6.68875 3.65731 6.74968 3.65731H37.2496C37.3106 3.65731 37.3602 3.70661 37.3602 3.76727V21.4638Z" fill="#3035C4"/>
<path d="M14.7797 5.77783H10.3004C9.49522 5.77783 8.84021 6.42906 8.84021 7.22963V10.4123C8.84021 11.2128 9.49522 11.8641 10.3004 11.8641H14.7797C15.5849 11.8641 16.2399 11.2128 16.2399 10.4123V7.22963C16.2399 6.42906 15.5849 5.77783 14.7797 5.77783ZM14.9876 10.4124C14.9876 10.5263 14.8943 10.619 14.7797 10.619H10.3004C10.1857 10.619 10.0926 10.5263 10.0926 10.4124V7.22972C10.0926 7.11574 10.1857 7.02304 10.3004 7.02304H14.7797C14.8943 7.02304 14.9876 7.11574 14.9876 7.22972V10.4124Z" fill="#E6514A"/>
<path d="M14.7797 13.3667H10.3004C9.49522 13.3667 8.84021 14.0179 8.84021 14.8185V18.0011C8.84021 18.8016 9.49522 19.4529 10.3004 19.4529H14.7797C15.5849 19.4529 16.2399 18.8016 16.2399 18.0011V14.8185C16.2399 14.0179 15.5849 13.3667 14.7797 13.3667ZM14.9876 18.0011C14.9876 18.1151 14.8943 18.2078 14.7797 18.2078H10.3004C10.1857 18.2078 10.0926 18.1151 10.0926 18.0011V14.8185C10.0926 14.7045 10.1857 14.6118 10.3004 14.6118H14.7797C14.8943 14.6118 14.9876 14.7045 14.9876 14.8185V18.0011Z" fill="#E6514A"/>
<path d="M43.3734 23.9858H41.0387V2.40164C41.0387 1.0774 39.955 0 38.6231 0H5.37634C4.0444 0 2.96073 1.0774 2.96073 2.40164V14.7905C2.96073 15.1343 3.24105 15.4131 3.58695 15.4131C3.93285 15.4131 4.21318 15.1343 4.21318 14.7905V2.40164C4.21318 1.764 4.73499 1.24512 5.37643 1.24512H38.6233C39.2647 1.24512 39.7865 1.76391 39.7865 2.40164V23.9858H4.21309V18C4.21309 17.6562 3.93276 17.3774 3.58687 17.3774C3.24097 17.3774 2.96064 17.6561 2.96064 18V23.9858H0.625981C0.280083 23.9858 -0.000244141 24.2645 -0.000244141 24.6084V26.1529C-0.000244141 27.7228 1.28443 29 2.86353 29H5.45935H38.5402H41.136C42.7151 29 43.9998 27.7228 43.9998 26.1529V24.6084C43.9997 24.2646 43.7193 23.9858 43.3734 23.9858ZM6.23417 27.7549C6.46396 27.3024 6.93584 26.9914 7.47957 26.9914H36.5197C37.0634 26.9914 37.5354 27.3024 37.7651 27.7549H6.23417ZM42.7474 26.1529H42.7473C42.7473 27.0362 42.0244 27.7549 41.136 27.7549H39.0908C38.8087 26.6037 37.7634 25.7463 36.5199 25.7463H7.47966C6.23606 25.7463 5.19071 26.6037 4.90867 27.7549H2.86353C1.97503 27.7549 1.25221 27.0362 1.25221 26.1529V25.2309H3.58695H40.4126H42.7474V26.1529Z" fill="#3035C4"/>
<path d="M34.3981 6.89282H31.8725C31.5266 6.89282 31.2463 7.17153 31.2463 7.51542C31.2464 7.85932 31.5267 8.13803 31.8725 8.13803H34.3981C34.744 8.13803 35.0243 7.85932 35.0243 7.51542C35.0243 7.17161 34.744 6.89282 34.3981 6.89282Z" fill="#3035C4"/>
<path d="M28.7103 6.89282H18.4513C18.1054 6.89282 17.8251 7.17153 17.8251 7.51542C17.8251 7.85932 18.1054 8.13803 18.4513 8.13803H28.7103C29.0562 8.13803 29.3365 7.85932 29.3365 7.51542C29.3365 7.17161 29.0562 6.89282 28.7103 6.89282Z" fill="#3035C4"/>
<path d="M34.3982 9.52686H18.4513C18.1054 9.52686 17.8251 9.80556 17.8251 10.1495C17.8251 10.4934 18.1054 10.7721 18.4513 10.7721H34.3982C34.7441 10.7721 35.0244 10.4934 35.0244 10.1495C35.0244 9.80565 34.7441 9.52686 34.3982 9.52686Z" fill="#3035C4"/>
<path d="M34.3982 14.4697H18.4513C18.1054 14.4697 17.8251 14.7484 17.8251 15.0923C17.8251 15.4362 18.1054 15.7149 18.4513 15.7149H34.3982C34.7441 15.7149 35.0244 15.4362 35.0244 15.0923C35.0244 14.7485 34.7441 14.4697 34.3982 14.4697Z" fill="#3035C4"/>
<path d="M34.3982 17.1045H18.4513C18.1054 17.1045 17.8251 17.3832 17.8251 17.7271C17.8251 18.071 18.1054 18.3497 18.4513 18.3497H34.3982C34.7441 18.3497 35.0244 18.071 35.0244 17.7271C35.0244 17.3833 34.7441 17.1045 34.3982 17.1045Z" fill="#3035C4"/>
</svg>
