<svg width="30" height="41" viewBox="0 0 30 41" fill="none" xmlns="http://www.w3.org/2000/svg">
<path d="M3.15765 15.2148C3.15765 21.8382 8.47 27.2265 14.9999 27.2265C21.5298 27.2265 26.8421 21.8382 26.8421 15.2148C26.8421 8.5915 21.5298 3.20312 14.9999 3.20312C8.47 3.20312 3.15765 8.5915 3.15765 15.2148ZM14.9999 4.80469C20.6592 4.80469 25.2631 9.47455 25.2631 15.2148C25.2631 20.9551 20.6592 25.625 14.9999 25.625C9.34059 25.625 4.73662 20.9551 4.73662 15.2148C4.73662 9.47455 9.34059 4.80469 14.9999 4.80469Z" fill="#3035C4"/>
<path d="M7.68856 13.7872L10.7487 16.8455L10.0447 21.1438C9.99564 21.4431 10.1175 21.7447 10.3595 21.923C10.6013 22.1013 10.9217 22.1253 11.1873 21.9858L14.9999 19.9776L18.8122 21.9858C19.0756 22.1244 19.396 22.1028 19.64 21.923C19.882 21.7447 20.0039 21.4431 19.9548 21.1438L19.2508 16.8455L22.3109 13.7872C22.524 13.5745 22.6002 13.258 22.5077 12.9692C22.4152 12.6808 22.17 12.4703 21.8743 12.425L17.6274 11.7765L15.7058 7.87865C15.5723 7.60745 15.2987 7.43604 14.9999 7.43604C14.7008 7.43604 14.4275 7.60745 14.2937 7.87865L12.3721 11.7765L8.12525 12.425C7.8295 12.47 7.58433 12.6808 7.49181 12.9692C7.39929 13.258 7.47577 13.5745 7.68856 13.7872ZM13.0126 13.2983C13.2667 13.2595 13.4863 13.0978 13.6013 12.8648L14.9999 10.0273L16.3985 12.8648C16.5135 13.0978 16.7331 13.2595 16.9872 13.2983L20.0782 13.7703L17.8507 15.9959C17.6678 16.1789 17.5839 16.4407 17.6259 16.6979L18.1384 19.8262L15.3635 18.3648C15.2497 18.3048 15.1248 18.2747 14.9999 18.2747C14.875 18.2747 14.7501 18.3048 14.636 18.3648L11.8611 19.8262L12.3736 16.6979C12.4159 16.4407 12.332 16.1789 12.1488 15.9959L9.92162 13.7703L13.0126 13.2983Z" fill="#E6514A"/>
<path d="M15.7894 0.80078C15.7894 1.24309 15.436 1.60156 14.9999 1.60156C14.5639 1.60156 14.2104 1.24309 14.2104 0.80078C14.2104 0.358474 14.5639 0 14.9999 0C15.436 0 15.7894 0.358474 15.7894 0.80078Z" fill="#3035C4"/>
<path d="M11.2792 0.472133C4.63796 2.19162 -0.000244141 8.25409 -0.000244141 15.2149C-0.000244141 19.5382 1.79182 23.6119 4.93772 26.4969L0.181398 34.9992C0.0284362 35.2729 0.0475565 35.612 0.230124 35.866C0.412692 36.1203 0.724784 36.2426 1.02855 36.1785L6.43002 35.0408L8.32848 40.467C8.43148 40.7623 8.69516 40.9691 9.00293 40.9969C9.31071 41.0248 9.60584 40.8674 9.75849 40.595L14.9999 31.2484L20.241 40.595C20.3823 40.8468 20.645 40.9998 20.9269 40.9998C20.95 40.9998 20.9734 40.9988 20.9966 40.9969C21.3044 40.9691 21.568 40.762 21.6713 40.467L23.5695 35.0408L28.971 36.1785C29.2744 36.2423 29.5868 36.12 29.7694 35.866C29.9523 35.612 29.9711 35.2729 29.8181 34.9992L25.0618 26.4969C28.2077 23.6119 29.9998 19.5382 29.9998 15.2149C29.9998 8.25409 25.3615 2.19162 18.7207 0.472133C18.2978 0.362651 17.8683 0.621341 17.7603 1.04988C17.6524 1.47843 17.9074 1.91448 18.3299 2.02396C24.2714 3.56233 28.4211 8.98668 28.4211 15.2149C28.4211 22.7951 22.3517 28.8282 14.9999 28.8282C7.64293 28.8282 1.57872 22.7901 1.57872 15.2149C1.57872 8.98668 5.72812 3.56233 11.6696 2.02396C12.0921 1.91448 12.3471 1.47843 12.2395 1.04988C12.1316 0.621341 11.702 0.362651 11.2792 0.472133ZM9.23947 38.2818L7.68795 33.8472C7.55596 33.4699 7.16985 33.2494 6.78344 33.3307L2.41569 34.2507L6.17992 27.5216C8.37474 29.1401 10.9736 30.126 13.676 30.37L9.23947 38.2818ZM23.2161 33.3307C22.83 33.2494 22.4436 33.4699 22.3116 33.8472L20.7604 38.2818L16.3235 30.37C19.0263 30.126 21.6248 29.1401 23.8199 27.5216L27.5841 34.2507L23.2161 33.3307Z" fill="#3035C4"/>
</svg>
