<svg width="46" height="41" viewBox="0 0 46 41" fill="none" xmlns="http://www.w3.org/2000/svg">
<path d="M42.8013 7.11619H41.0087L41.0105 3.91154C41.0115 1.76007 39.2623 0.00874439 37.1105 0.00769506L23.5056 0C23.5049 0 23.5046 0 23.5039 0C22.7295 0 22.0012 0.301507 21.4535 0.849255L1.14272 21.16C0.40574 21.897 0 22.8767 0 23.9191C0 24.9614 0.40574 25.9411 1.14272 26.6781L14.3237 39.859C15.0844 40.6198 16.0837 41 17.0827 41C18.082 41 19.0813 40.6198 19.8421 39.859L32.6299 27.0712C32.9796 26.7215 32.9796 26.1545 32.6299 25.805C32.2801 25.4553 31.7131 25.4553 31.3633 25.805L18.5755 38.5928C17.7525 39.4159 16.4132 39.4159 15.5902 38.5928L2.40925 25.4119C2.01051 25.0132 1.79085 24.4829 1.79085 23.9191C1.79085 23.3552 2.01051 22.825 2.40925 22.4262L22.7197 2.11579C22.9292 1.90628 23.2076 1.79085 23.5039 1.79085H23.5046L37.1094 1.79855C38.2735 1.7989 39.2203 2.74679 39.2196 3.91084L39.2154 11.4142H35.1822C34.8349 11.4142 34.5204 11.2722 34.2931 11.0435C34.6677 10.8829 35.0188 10.651 35.3242 10.3457C36.611 9.05849 36.611 6.96473 35.3242 5.67791C34.037 4.39073 31.9433 4.39073 30.6561 5.67791C29.3693 6.96473 29.3693 9.05849 30.6561 10.3457C31.1332 10.8228 31.7215 11.1225 32.3382 11.246C32.7764 12.3901 33.8856 13.2051 35.1822 13.2051H39.2144L39.2119 17.4975C39.2119 17.7938 39.0965 18.0719 38.887 18.281L36.4288 20.7396C36.079 21.0894 36.079 21.6564 36.4288 22.0061C36.7782 22.3556 37.3452 22.3556 37.695 22.0061L40.1535 19.5476C40.7006 19.0002 41.0024 18.2726 41.0028 17.4986L41.0052 13.2051H42.8013C44.4799 13.2051 45.8458 11.8396 45.8458 10.1606C45.8458 8.48206 44.4799 7.11619 42.8013 7.11619ZM31.9226 6.9441C32.2171 6.64958 32.6036 6.50268 32.9905 6.50268C33.377 6.50268 33.7635 6.64993 34.058 6.9441C34.151 7.03749 34.228 7.14067 34.2917 7.24945C33.3088 7.55061 32.5365 8.33725 32.2542 9.32852C32.1356 9.26241 32.0234 9.18021 31.9226 9.07948C31.334 8.49045 31.334 7.53277 31.9226 6.9441ZM42.8013 11.4142H41.0063L41.0077 8.90704H42.8013C43.4925 8.90704 44.0549 9.46948 44.0549 10.1606C44.0549 10.8518 43.4925 11.4142 42.8013 11.4142Z" fill="#3035C4"/>
<path d="M14.4534 22.5921C14.5636 22.9883 14.9235 23.2475 15.3153 23.2475C15.395 23.2475 15.4758 23.237 15.5559 23.2147L24.748 20.656C25.2244 20.5235 25.5032 20.0296 25.3706 19.5532C25.2381 19.0772 24.7445 18.7984 24.2678 18.9309L15.0757 21.4892C14.5996 21.6221 14.3209 22.1157 14.4534 22.5921Z" fill="#E6514A"/>
<path d="M18.4996 23.7735C18.0009 24.2723 17.7263 24.9351 17.7263 25.6406C17.7263 26.3458 18.0009 27.0086 18.4996 27.5074C19.0145 28.0219 19.6903 28.2793 20.3664 28.2793C21.0425 28.2793 21.7186 28.0219 22.2335 27.5074C23.2629 26.478 23.2629 24.8029 22.2335 23.7735C21.2041 22.7441 19.529 22.7441 18.4996 23.7735ZM20.967 26.2408C20.6357 26.5721 20.0971 26.5721 19.7658 26.2408C19.6053 26.0806 19.5171 25.8673 19.5171 25.6403C19.5171 25.4136 19.6056 25.2002 19.7658 25.0397C19.9316 24.8743 20.1492 24.7914 20.3664 24.7914C20.584 24.7914 20.8015 24.8743 20.967 25.0397C21.2982 25.3709 21.2982 25.9099 20.967 26.2408Z" fill="#E6514A"/>
<path d="M22.677 18.4423C23.7064 17.4125 23.7064 15.7378 22.677 14.7084C22.1782 14.2096 21.5151 13.9351 20.8099 13.9351C20.1048 13.9351 19.4416 14.2096 18.9432 14.7084C17.9138 15.7378 17.9138 17.4125 18.9432 18.4423C19.458 18.9568 20.1338 19.2142 20.8099 19.2142C21.486 19.2142 22.1621 18.9568 22.677 18.4423ZM20.2093 15.9746C20.3699 15.8141 20.5833 15.7259 20.8099 15.7259C21.0369 15.7259 21.2503 15.8141 21.4105 15.9746C21.7417 16.3058 21.7417 16.8445 21.4105 17.1757C21.0796 17.507 20.5406 17.507 20.2093 17.1757C19.8785 16.8445 19.8785 16.3058 20.2093 15.9746Z" fill="#E6514A"/>
<path d="M8.90599 20.7415C8.55622 20.3917 7.98923 20.3917 7.63945 20.7415L5.09519 23.2858C4.92729 23.4537 4.83286 23.6814 4.83286 23.9189C4.83286 24.1564 4.92729 24.3841 5.09519 24.552L16.45 35.9067C16.6245 36.0813 16.8539 36.1687 17.083 36.1687C17.3122 36.1687 17.5413 36.0813 17.7161 35.9067L34.6929 18.9297C35.0426 18.5799 35.0426 18.0129 34.6929 17.6631L23.3384 6.30872C23.1705 6.14083 22.9428 6.04639 22.7053 6.04639C22.4678 6.04639 22.2401 6.14083 22.0722 6.30872L12.7049 15.6761C12.3551 16.0258 12.3551 16.5928 12.7049 16.9426C13.0543 17.292 13.6213 17.292 13.9711 16.9426L22.7053 8.20835L32.7936 18.2966L17.083 34.0071L6.99482 23.9189L8.90599 22.0077C9.25542 21.6579 9.25577 21.0913 8.90599 20.7415Z" fill="#3035C4"/>
<path d="M34.5295 23.0098C34.2937 23.0098 34.0629 23.1056 33.8964 23.2721C33.7299 23.4386 33.6341 23.6698 33.6341 23.9052C33.6341 24.1406 33.7299 24.3718 33.8964 24.5383C34.0629 24.7048 34.2937 24.8006 34.5295 24.8006C34.7649 24.8006 34.9957 24.7048 35.1626 24.5383C35.3291 24.3718 35.4249 24.1406 35.4249 23.9052C35.4249 23.6698 35.3291 23.4386 35.1626 23.2721C34.9957 23.1056 34.7649 23.0098 34.5295 23.0098Z" fill="#3035C4"/>
<path d="M11.438 19.4748C11.6056 19.3083 11.7007 19.0782 11.7007 18.8417C11.7007 18.6063 11.6056 18.3762 11.438 18.2086C11.2715 18.0421 11.0414 17.9463 10.8053 17.9463C10.5695 17.9463 10.3387 18.0421 10.1722 18.2086C10.0053 18.3751 9.90985 18.6063 9.90985 18.8417C9.90985 19.0782 10.0053 19.3083 10.1722 19.4748C10.3394 19.6424 10.5695 19.7371 10.8053 19.7371C11.0414 19.7371 11.2715 19.6424 11.438 19.4748Z" fill="#3035C4"/>
</svg>
