<svg width="30" height="42" viewBox="0 0 30 42" fill="none" xmlns="http://www.w3.org/2000/svg">
<path d="M29.9592 39.0946C28.1047 29.6987 28.1849 30.0988 28.1757 30.0601C27.9326 28.8725 27.2488 27.8864 26.1404 27.2686C25.6219 26.979 25.323 26.9338 25.0616 26.8477L20.5054 25.251L18.9869 24.2002V23.0082C21.2074 21.6773 22.6211 19.3851 22.8796 16.9046C24.7351 16.9914 26.0283 15.202 25.2504 13.6354V8.61999C25.2504 4.99306 23.2954 3.73126 22.6981 3.43054C19.7756 -0.0896639 14.3182 -0.992498 10.1812 1.14942L10.1732 1.15344C10.1022 1.19552 9.24961 1.59353 8.19969 2.4793C7.94498 2.70161 7.91709 3.09011 8.13733 3.34711C8.35798 3.60444 8.74311 3.63192 8.99742 3.41003C13.0491 -0.0226447 19.063 0.859436 21.8431 4.31828C21.9116 4.40334 21.9949 4.4661 22.0966 4.50449C22.1757 4.53648 24.0309 5.32431 24.0309 8.61999V12.5028C23.6926 12.3583 23.3218 12.2842 22.9265 12.2954V10.2831C22.9265 9.77261 22.5453 9.35072 22.04 9.3015C21.0152 9.20167 20.4411 8.52803 20.1398 7.98064C19.7627 7.29543 18.8626 7.13129 18.2723 7.64021C15.5535 9.98507 12.4231 10.1042 10.2758 9.79172C8.65376 9.55547 7.14514 10.6702 6.88262 12.2962C6.48782 12.279 6.09774 12.3495 5.73912 12.5028C5.74148 10.3846 5.49928 8.08006 7.21619 5.43923C7.40042 5.15475 7.32115 4.77355 7.0392 4.58767C6.75733 4.4017 6.37944 4.48152 6.19522 4.76617C3.85863 8.37865 4.69464 11.6156 4.51952 13.6353C3.74196 15.2013 5.03351 16.9914 6.89026 16.9045C7.19335 19.8258 8.97693 21.5064 9.01929 21.5796L9.01937 21.5797C9.33595 21.8859 9.90449 22.5256 11.0127 23.1419V24.1999L9.49441 25.2506C3.5522 27.3333 4.15529 27.0806 3.67253 27.3782C2.76009 27.9453 2.12765 28.8126 1.86407 29.8805C1.81212 30.0915 1.89838 29.6927 0.040408 39.0944C0.00300959 39.2843 -0.0166654 39.6545 0.0169119 39.9684C0.154636 41.2595 1.06212 41.9999 2.50667 41.9999H19.2615C19.5983 41.9999 19.8713 41.7245 19.8713 41.3847C19.8713 41.0448 19.5983 40.7695 19.2615 40.7695H6.79465V35.1324C6.79465 34.7926 6.52164 34.5172 6.18489 34.5172C5.84814 34.5172 5.57513 34.7926 5.57513 35.1324V40.7695H2.50651C1.55049 40.7695 1.10155 40.3558 1.23992 39.317C2.90846 31.0906 2.91204 30.4268 3.18497 29.7528C3.23253 29.6856 3.49545 28.7363 4.78456 28.1842C4.91782 28.129 4.83473 28.1659 5.2931 28.025C5.32139 28.0168 5.18164 28.0647 7.37148 27.2976L8.83205 30.018C8.99246 30.3168 9.36238 30.428 9.65864 30.2659C9.95474 30.1041 10.0647 29.7307 9.90433 29.4319L8.5388 26.8884L9.47262 26.5611C9.92278 27.3996 13.9086 34.8232 14.3418 35.63C14.6092 36.1298 15.29 36.1547 15.6037 35.7183C15.6605 35.6393 15.3359 36.2273 20.5192 26.5583L21.4529 26.8855L16.5167 36.0984C15.866 37.3128 14.136 37.3129 13.4844 36.0997L11.2598 31.9561C11.0993 31.6574 10.7294 31.5461 10.4332 31.7082C10.1371 31.8701 10.0271 32.2435 10.1875 32.5422L12.4122 36.6859C13.525 38.758 16.479 38.7562 17.5895 36.6836L22.62 27.2946C24.8049 28.06 24.6768 28.0163 24.7051 28.0245C25.1349 28.1567 25.0871 28.1313 25.2137 28.1835C25.68 28.3839 25.9583 28.6152 25.9501 28.6091C26.4283 28.9982 26.7579 29.4477 26.934 30.1096C26.9629 30.2146 28.7731 39.2702 28.7805 39.5757C28.7986 40.3481 28.468 40.7695 27.4934 40.7695H24.4245V35.1324C24.4245 34.7926 24.1516 34.5172 23.8148 34.5172C23.4779 34.5172 23.205 34.7926 23.205 35.1324V40.7695H22.1067C21.7699 40.7695 21.497 41.0449 21.497 41.3848C21.497 41.7246 21.7699 42 22.1067 42H27.4931C28.9377 42 29.8451 41.2596 29.9827 39.9692C30.0159 39.6614 29.9964 39.2833 29.9592 39.0946ZM22.9264 13.5263C23.6296 13.4888 24.2589 13.9667 24.2589 14.6006C24.2589 15.2409 23.6227 15.7122 22.9264 15.6751V13.5263ZM6.84359 15.6751C6.1405 15.7126 5.51107 15.2346 5.51107 14.6007C5.51107 13.9605 6.14725 13.4891 6.84359 13.5263V15.6751ZM10.1015 11.0096C12.4983 11.3586 15.9989 11.2197 19.0645 8.57553L19.0735 8.57791C19.6625 9.648 20.5917 10.3235 21.7069 10.4987V12.6774L21.0111 13.0918C20.7246 12.6752 20.2478 12.4014 19.7085 12.4014H16.9182C16.26 12.4014 15.6947 12.8083 15.4552 13.3857H14.3147C14.0753 12.8083 13.5099 12.4014 12.8517 12.4014H10.0614C9.52197 12.4014 9.04514 12.6752 8.7588 13.0918L8.0662 12.6792C8.12619 11.6275 9.06847 10.8588 10.1015 11.0096ZM20.0744 14.001V15.2262C20.0744 15.7599 19.644 16.194 19.1151 16.194H17.5114C16.9826 16.194 16.5522 15.7598 16.5522 15.2262V14.001H16.5523C16.5523 13.8009 16.7199 13.6318 16.9182 13.6318H19.7085C19.9068 13.6318 20.0744 13.8009 20.0744 14.001ZM13.2176 14.001V15.2262C13.2176 15.7599 12.7873 16.194 12.2584 16.194H10.6547C10.1258 16.194 9.69555 15.7598 9.69555 15.2262V14.001C9.69555 13.8009 9.86311 13.6318 10.0614 13.6318H12.8517C13.05 13.6318 13.2176 13.8009 13.2176 14.001ZM9.7075 20.5116C7.73408 18.1908 8.11449 15.9373 8.06311 14.1062L8.4762 14.3522V15.2262C8.4762 16.4383 9.45352 17.4245 10.6548 17.4245H12.2585C13.4598 17.4245 14.4371 16.4384 14.4371 15.2262V14.6161H15.3331V15.2262C15.3331 16.4383 16.3104 17.4245 17.5117 17.4245H19.1154C20.3167 17.4245 21.2941 16.4384 21.2941 15.2262V14.3522L21.7072 14.1062V16.0299C21.7072 19.6892 18.8368 22.8685 14.8852 22.9123C14.877 22.9123 14.7949 22.9117 14.803 22.9118C13.749 22.901 12.939 22.6284 13.0209 22.6517C11.8244 22.3168 10.6833 21.6256 9.7075 20.5116ZM14.9999 27.3945L12.2322 24.2872V23.6905C13.505 24.1365 14.8249 24.239 16.0539 24.0582C16.3969 24.008 16.766 23.9255 16.9819 23.864C17.0332 23.8472 17.3276 23.7761 17.7675 23.6053V24.2873L14.9999 27.3945ZM15.6866 29.5871L15.4172 30.1468H14.5826L14.3131 29.5871L14.9999 29.0781L15.6866 29.5871ZM13.393 31.2798L13.0047 30.5567L13.3139 30.3275L13.5451 30.8078L13.393 31.2798ZM12.4225 29.4615L10.5699 26.0038L11.5281 25.3371L14.0966 28.221C13.9482 28.3307 12.5682 29.3535 12.4225 29.4615ZM14.9997 34.2723L14.1943 32.7723L14.6439 31.3772H15.3561L15.8049 32.7699C15.5496 33.246 15.3126 33.6883 14.9997 34.2723ZM16.6055 31.2753L16.4548 30.8076L16.6859 30.3274L16.9918 30.5541L16.6055 31.2753ZM17.5774 29.4615C17.4189 29.3442 16.0943 28.3625 15.9034 28.221L18.4719 25.3371L19.43 26.0038C18.8147 27.152 17.9766 28.7161 17.5774 29.4615Z" fill="#3035C4"/>
</svg>
